<svg xmlns="http://www.w3.org/2000/svg" xmlns:xlink="http://www.w3.org/1999/xlink" width="1080" zoomAndPan="magnify" viewBox="0 0 810 809.999993" height="1080" preserveAspectRatio="xMidYMid meet" version="1.0"><path fill="#ffffff" d="M 21.792969 791.695312 L 75.757812 594.6875 C 42.464844 537.035156 24.957031 471.613281 24.976562 404.609375 C 25.078125 194.984375 195.664062 24.4375 405.3125 24.4375 C 507.050781 24.476562 602.519531 64.078125 674.332031 135.929688 C 746.121094 207.804688 785.664062 303.3125 785.625 404.910156 C 785.542969 614.539062 614.917969 785.105469 405.3125 785.105469 C 405.292969 785.105469 405.3125 785.105469 405.3125 785.105469 L 405.152344 785.105469 C 341.511719 785.082031 278.953125 769.117188 223.40625 738.8125 Z M 21.792969 791.695312 " fill-opacity="1" fill-rule="evenodd"/><path fill="#ffffff" d="M 21.792969 801.710938 C 19.148438 801.710938 16.585938 800.667969 14.683594 798.746094 C 12.179688 796.203125 11.195312 792.496094 12.136719 789.070312 L 65 596.050781 C 32.230469 537.839844 14.941406 471.734375 14.984375 404.628906 C 15.0625 189.453125 190.15625 14.421875 405.3125 14.421875 C 509.675781 14.460938 607.726562 55.105469 681.421875 128.859375 C 755.117188 202.636719 795.679688 300.667969 795.640625 404.910156 C 795.558594 620.066406 620.445312 795.121094 405.3125 795.121094 C 341.433594 795.097656 278.234375 779.335938 222.144531 749.507812 L 24.335938 801.371094 C 23.496094 801.609375 22.65625 801.710938 21.792969 801.710938 Z M 21.792969 801.710938 " fill-opacity="1" fill-rule="evenodd"/><path fill="#cfd8dc" d="M 405.3125 24.4375 C 507.050781 24.476562 602.519531 64.078125 674.332031 135.929688 C 746.121094 207.804688 785.664062 303.3125 785.625 404.910156 C 785.542969 614.539062 614.917969 785.105469 405.3125 785.105469 L 405.152344 785.105469 C 341.511719 785.082031 278.953125 769.117188 223.40625 738.8125 L 21.792969 791.695312 L 75.757812 594.6875 C 42.464844 537.035156 24.957031 471.613281 24.976562 404.609375 C 25.078125 194.984375 195.664062 24.4375 405.3125 24.4375 M 405.3125 4.40625 C 184.648438 4.40625 5.046875 183.925781 4.945312 404.609375 C 4.925781 472.054688 21.953125 538.519531 54.242188 597.351562 L 2.464844 786.425781 C 0.578125 793.335938 2.503906 800.707031 7.550781 805.796875 C 11.355469 809.640625 16.503906 811.746094 21.792969 811.746094 C 23.496094 811.746094 25.199219 811.523438 26.882812 811.085938 L 220.921875 760.203125 C 277.570312 789.609375 341.070312 805.136719 405.152344 805.15625 C 625.976562 805.15625 805.574219 625.613281 805.675781 404.929688 C 805.714844 297.984375 764.109375 197.425781 688.53125 121.789062 C 612.914062 46.132812 512.339844 4.445312 405.3125 4.40625 Z M 405.3125 4.40625 " fill-opacity="1" fill-rule="evenodd"/><path fill="#40c351" d="M 628.898438 181.320312 C 569.207031 121.589844 489.863281 88.675781 405.410156 88.65625 C 231.058594 88.65625 89.257812 230.398438 89.179688 404.628906 C 89.15625 464.34375 105.863281 522.472656 137.511719 572.8125 L 145.046875 584.769531 L 113.09375 701.375 L 232.742188 670.003906 L 244.300781 676.855469 C 292.816406 705.660156 348.460938 720.882812 405.191406 720.902344 L 405.3125 720.902344 C 579.542969 720.902344 721.34375 579.140625 721.40625 404.890625 C 721.425781 320.460938 688.59375 241.054688 628.898438 181.320312 Z M 628.898438 181.320312 " fill-opacity="1" fill-rule="evenodd"/><path fill="#ffffff" d="M 310.242188 245.683594 C 303.132812 229.859375 295.640625 229.539062 288.851562 229.257812 C 283.300781 229.015625 276.972656 229.035156 270.640625 229.035156 C 264.3125 229.035156 254.015625 231.421875 245.300781 240.933594 C 236.589844 250.449219 212.03125 273.425781 212.03125 320.179688 C 212.03125 366.929688 246.082031 412.121094 250.832031 418.453125 C 255.578125 424.78125 316.574219 523.796875 413.164062 561.894531 C 493.429688 593.546875 509.773438 587.253906 527.203125 585.671875 C 544.628906 584.089844 583.429688 562.695312 591.339844 540.503906 C 599.253906 518.308594 599.253906 499.296875 596.890625 495.332031 C 594.507812 491.367188 588.175781 489 578.683594 484.234375 C 569.1875 479.46875 522.453125 456.492188 513.742188 453.328125 C 505.027344 450.160156 498.695312 448.578125 492.347656 458.09375 C 486.015625 467.589844 467.808594 489 462.261719 495.332031 C 456.710938 501.679688 451.164062 502.484375 441.667969 497.714844 C 432.171875 492.949219 401.566406 482.933594 365.25 450.5625 C 337.003906 425.382812 317.933594 394.273438 312.386719 384.757812 C 306.835938 375.265625 311.785156 370.117188 316.554688 365.367188 C 320.820312 361.101562 326.046875 354.273438 330.816406 348.722656 C 335.5625 343.175781 337.144531 339.207031 340.308594 332.878906 C 343.476562 326.527344 341.890625 320.980469 339.507812 316.230469 C 337.164062 311.464844 318.695312 264.472656 310.242188 245.683594 Z M 310.242188 245.683594 " fill-opacity="1" fill-rule="evenodd"/></svg>