<svg xmlns="http://www.w3.org/2000/svg" xmlns:xlink="http://www.w3.org/1999/xlink" width="1080" zoomAndPan="magnify" viewBox="0 0 810 809.999993" height="1080" preserveAspectRatio="xMidYMid meet" version="1.0"><path fill="#039be5" d="M 404.828125 4.046875 C 398.269531 4.046875 391.714844 4.207031 385.164062 4.53125 C 378.613281 4.851562 372.074219 5.335938 365.546875 5.976562 C 359.019531 6.621094 352.511719 7.421875 346.023438 8.386719 C 339.535156 9.347656 333.074219 10.46875 326.640625 11.75 C 320.207031 13.027344 313.808594 14.464844 307.449219 16.058594 C 301.085938 17.652344 294.765625 19.402344 288.488281 21.304688 C 282.210938 23.210938 275.984375 25.265625 269.808594 27.476562 C 263.632812 29.6875 257.515625 32.046875 251.457031 34.554688 C 245.398438 37.066406 239.402344 39.722656 233.472656 42.527344 C 227.542969 45.332031 221.6875 48.28125 215.902344 51.371094 C 210.117188 54.464844 204.414062 57.695312 198.785156 61.066406 C 193.160156 64.441406 187.621094 67.949219 182.167969 71.59375 C 176.714844 75.234375 171.351562 79.011719 166.085938 82.917969 C 160.816406 86.824219 155.648438 90.859375 150.578125 95.019531 C 145.507812 99.183594 140.539062 103.464844 135.679688 107.871094 C 130.820312 112.273438 126.070312 116.796875 121.433594 121.433594 C 116.796875 126.070312 112.273438 130.820312 107.871094 135.679688 C 103.464844 140.539062 99.183594 145.507812 95.019531 150.578125 C 90.859375 155.648438 86.824219 160.816406 82.917969 166.085938 C 79.011719 171.351562 75.234375 176.714844 71.59375 182.167969 C 67.949219 187.621094 64.441406 193.160156 61.066406 198.785156 C 57.695312 204.414062 54.464844 210.117188 51.371094 215.902344 C 48.28125 221.6875 45.332031 227.542969 42.527344 233.472656 C 39.722656 239.402344 37.066406 245.398438 34.554688 251.457031 C 32.046875 257.515625 29.6875 263.632812 27.476562 269.808594 C 25.265625 275.984375 23.210938 282.210938 21.304688 288.488281 C 19.402344 294.765625 17.652344 301.085938 16.058594 307.449219 C 14.464844 313.808594 13.027344 320.207031 11.75 326.640625 C 10.46875 333.074219 9.347656 339.535156 8.386719 346.023438 C 7.421875 352.511719 6.621094 359.019531 5.976562 365.546875 C 5.335938 372.074219 4.851562 378.613281 4.53125 385.164062 C 4.207031 391.714844 4.046875 398.269531 4.046875 404.828125 C 4.046875 411.386719 4.207031 417.945312 4.53125 424.496094 C 4.851562 431.046875 5.335938 437.585938 5.976562 444.113281 C 6.621094 450.640625 7.421875 457.148438 8.386719 463.636719 C 9.347656 470.125 10.46875 476.585938 11.75 483.019531 C 13.027344 489.449219 14.464844 495.847656 16.058594 502.210938 C 17.652344 508.574219 19.402344 514.894531 21.304688 521.167969 C 23.210938 527.445312 25.265625 533.671875 27.476562 539.847656 C 29.6875 546.023438 32.046875 552.140625 34.554688 558.203125 C 37.066406 564.261719 39.722656 570.253906 42.527344 576.183594 C 45.332031 582.113281 48.28125 587.972656 51.371094 593.757812 C 54.464844 599.539062 57.695312 605.246094 61.066406 610.871094 C 64.441406 616.496094 67.949219 622.039062 71.59375 627.492188 C 75.234375 632.945312 79.011719 638.304688 82.917969 643.574219 C 86.824219 648.84375 90.859375 654.011719 95.019531 659.082031 C 99.183594 664.152344 103.464844 669.117188 107.871094 673.976562 C 112.273438 678.835938 116.796875 683.585938 121.433594 688.222656 C 126.070312 692.863281 130.820312 697.382812 135.679688 701.789062 C 140.539062 706.195312 145.507812 710.476562 150.578125 714.636719 C 155.648438 718.796875 160.816406 722.832031 166.085938 726.738281 C 171.351562 730.648438 176.714844 734.421875 182.167969 738.066406 C 187.621094 741.710938 193.160156 745.21875 198.785156 748.589844 C 204.414062 751.960938 210.117188 755.195312 215.902344 758.285156 C 221.6875 761.378906 227.542969 764.328125 233.472656 767.132812 C 239.402344 769.9375 245.398438 772.59375 251.457031 775.101562 C 257.515625 777.613281 263.632812 779.972656 269.808594 782.183594 C 275.984375 784.390625 282.210938 786.449219 288.488281 788.351562 C 294.765625 790.257812 301.085938 792.003906 307.449219 793.597656 C 313.808594 795.191406 320.207031 796.628906 326.640625 797.910156 C 333.074219 799.1875 339.535156 800.308594 346.023438 801.273438 C 352.511719 802.234375 359.019531 803.039062 365.546875 803.679688 C 372.074219 804.324219 378.613281 804.804688 385.164062 805.128906 C 391.714844 805.449219 398.269531 805.609375 404.828125 805.609375 C 411.386719 805.609375 417.945312 805.449219 424.496094 805.128906 C 431.046875 804.804688 437.585938 804.324219 444.113281 803.679688 C 450.640625 803.039062 457.148438 802.234375 463.636719 801.273438 C 470.125 800.308594 476.585938 799.1875 483.019531 797.910156 C 489.449219 796.628906 495.847656 795.191406 502.210938 793.597656 C 508.574219 792.003906 514.894531 790.257812 521.167969 788.351562 C 527.445312 786.449219 533.671875 784.390625 539.847656 782.183594 C 546.023438 779.972656 552.140625 777.613281 558.203125 775.101562 C 564.261719 772.59375 570.253906 769.9375 576.183594 767.132812 C 582.113281 764.328125 587.972656 761.378906 593.757812 758.285156 C 599.539062 755.195312 605.246094 751.960938 610.871094 748.589844 C 616.496094 745.21875 622.039062 741.710938 627.492188 738.066406 C 632.945312 734.421875 638.304688 730.648438 643.574219 726.738281 C 648.84375 722.832031 654.011719 718.796875 659.082031 714.636719 C 664.152344 710.476562 669.117188 706.195312 673.976562 701.789062 C 678.835938 697.382812 683.585938 692.863281 688.222656 688.222656 C 692.863281 683.585938 697.382812 678.835938 701.789062 673.976562 C 706.195312 669.117188 710.476562 664.152344 714.636719 659.082031 C 718.796875 654.011719 722.832031 648.84375 726.738281 643.574219 C 730.648438 638.304688 734.421875 632.945312 738.066406 627.492188 C 741.710938 622.039062 745.21875 616.496094 748.589844 610.871094 C 751.960938 605.246094 755.195312 599.539062 758.285156 593.757812 C 761.378906 587.972656 764.328125 582.113281 767.132812 576.183594 C 769.933594 570.253906 772.59375 564.261719 775.101562 558.203125 C 777.613281 552.140625 779.972656 546.023438 782.183594 539.847656 C 784.390625 533.671875 786.449219 527.445312 788.351562 521.167969 C 790.257812 514.894531 792.003906 508.574219 793.597656 502.210938 C 795.191406 495.847656 796.628906 489.449219 797.910156 483.019531 C 799.1875 476.585938 800.308594 470.125 801.273438 463.636719 C 802.234375 457.148438 803.039062 450.640625 803.679688 444.113281 C 804.324219 437.585938 804.804688 431.046875 805.128906 424.496094 C 805.449219 417.945312 805.609375 411.386719 805.609375 404.828125 C 805.609375 398.269531 805.449219 391.714844 805.128906 385.164062 C 804.804688 378.613281 804.324219 372.074219 803.679688 365.546875 C 803.039062 359.019531 802.234375 352.511719 801.273438 346.023438 C 800.308594 339.535156 799.1875 333.074219 797.910156 326.640625 C 796.628906 320.207031 795.191406 313.808594 793.597656 307.449219 C 792.003906 301.085938 790.257812 294.765625 788.351562 288.488281 C 786.449219 282.210938 784.390625 275.984375 782.183594 269.808594 C 779.972656 263.632812 777.613281 257.515625 775.101562 251.457031 C 772.59375 245.398438 769.933594 239.402344 767.132812 233.472656 C 764.328125 227.542969 761.378906 221.6875 758.285156 215.902344 C 755.195312 210.117188 751.960938 204.414062 748.589844 198.785156 C 745.21875 193.160156 741.710938 187.621094 738.066406 182.167969 C 734.421875 176.714844 730.648438 171.351562 726.738281 166.085938 C 722.832031 160.816406 718.796875 155.648438 714.636719 150.578125 C 710.476562 145.507812 706.195312 140.539062 701.789062 135.679688 C 697.382812 130.820312 692.863281 126.070312 688.222656 121.433594 C 683.585938 116.796875 678.835938 112.273438 673.976562 107.871094 C 669.117188 103.464844 664.152344 99.183594 659.082031 95.019531 C 654.011719 90.859375 648.84375 86.824219 643.574219 82.917969 C 638.304688 79.011719 632.945312 75.234375 627.492188 71.59375 C 622.039062 67.949219 616.496094 64.441406 610.871094 61.066406 C 605.246094 57.695312 599.539062 54.464844 593.757812 51.371094 C 587.972656 48.28125 582.113281 45.332031 576.183594 42.527344 C 570.253906 39.722656 564.261719 37.066406 558.203125 34.554688 C 552.140625 32.046875 546.023438 29.6875 539.847656 27.476562 C 533.671875 25.265625 527.445312 23.210938 521.167969 21.304688 C 514.894531 19.402344 508.574219 17.652344 502.210938 16.058594 C 495.847656 14.464844 489.449219 13.027344 483.019531 11.75 C 476.585938 10.46875 470.125 9.347656 463.636719 8.386719 C 457.148438 7.421875 450.640625 6.621094 444.113281 5.976562 C 437.585938 5.335938 431.046875 4.851562 424.496094 4.53125 C 417.945312 4.207031 411.386719 4.046875 404.828125 4.046875 Z M 404.828125 4.046875 " fill-opacity="1" fill-rule="nonzero"/><path fill="#ffffff" d="M 459.082031 511.058594 L 562.800781 511.058594 L 579.085938 405.695312 L 459.0625 405.695312 L 459.0625 348.109375 C 459.0625 304.339844 473.363281 265.527344 514.304688 265.527344 L 580.097656 265.527344 L 580.097656 173.578125 C 568.539062 172.015625 544.089844 168.601562 497.894531 168.601562 C 401.433594 168.601562 344.882812 219.542969 344.882812 335.597656 L 344.882812 405.695312 L 245.71875 405.695312 L 245.71875 511.058594 L 344.882812 511.058594 L 344.882812 800.652344 C 364.519531 803.605469 384.410156 805.609375 404.828125 805.609375 C 423.285156 805.609375 441.300781 803.921875 459.082031 801.519531 Z M 459.082031 511.058594 " fill-opacity="1" fill-rule="nonzero"/></svg>